<svg width="80" height="16" viewBox="0 0 80 16" fill="none" xmlns="http://www.w3.org/2000/svg">
<rect width="80" height="16" fill="white"/>
<path d="M8.53475 2.35755L9.63543 4.33764C9.78624 4.60943 10.1647 4.86763 10.476 4.90253L12.3287 5.13421C13.515 5.27999 13.8209 6.11749 13.0136 6.99472L11.6382 8.48084C11.4086 8.72989 11.2894 9.205 11.3816 9.5311L11.8635 11.2807C12.2426 12.6621 11.5217 13.2346 10.255 12.5561L8.48535 11.6081C8.16306 11.4348 7.65112 11.46 7.34834 11.6546L5.66373 12.7393C4.45779 13.5147 3.69041 13.0043 3.95503 11.5978L4.29388 9.81793C4.35714 9.48522 4.20547 9.02093 3.95512 8.79252L2.45304 7.42206C1.57642 6.61596 1.81222 5.75681 2.98036 5.51323L4.80432 5.13422C5.11214 5.0677 5.46887 4.787 5.59411 4.5014L6.52858 2.43455C7.03936 1.32097 7.9405 1.28588 8.53475 2.35755Z" fill="#FFBD39"/>
<path d="M24.5347 2.35755L25.6354 4.33764C25.7862 4.60943 26.1647 4.86763 26.476 4.90253L28.3287 5.13421C29.515 5.27999 29.8209 6.11749 29.0136 6.99472L27.6382 8.48084C27.4086 8.72989 27.2894 9.205 27.3816 9.5311L27.8635 11.2807C28.2426 12.6621 27.5217 13.2346 26.255 12.5561L24.4854 11.6081C24.1631 11.4348 23.6511 11.46 23.3483 11.6546L21.6637 12.7393C20.4578 13.5147 19.6904 13.0043 19.955 11.5978L20.2939 9.81793C20.3571 9.48522 20.2055 9.02093 19.9551 8.79252L18.453 7.42206C17.5764 6.61596 17.8122 5.75681 18.9804 5.51323L20.8043 5.13422C21.1121 5.0677 21.4689 4.787 21.5941 4.5014L22.5286 2.43455C23.0394 1.32097 23.9405 1.28588 24.5347 2.35755Z" fill="#FFBD39"/>
<path d="M40.5347 2.35755L41.6354 4.33764C41.7862 4.60943 42.1647 4.86763 42.476 4.90253L44.3287 5.13421C45.515 5.27999 45.8209 6.11749 45.0136 6.99472L43.6382 8.48084C43.4086 8.72989 43.2894 9.205 43.3816 9.5311L43.8635 11.2807C44.2426 12.6621 43.5217 13.2346 42.255 12.5561L40.4854 11.6081C40.1631 11.4348 39.6511 11.46 39.3483 11.6546L37.6637 12.7393C36.4578 13.5147 35.6904 13.0043 35.955 11.5978L36.2939 9.81793C36.3571 9.48522 36.2055 9.02093 35.9551 8.79252L34.453 7.42206C33.5764 6.61596 33.8122 5.75681 34.9804 5.51323L36.8043 5.13422C37.1121 5.0677 37.4689 4.787 37.5941 4.5014L38.5286 2.43455C39.0394 1.32097 39.9405 1.28588 40.5347 2.35755Z" fill="#FFBD39"/>
<path d="M56.5347 2.35755L57.6354 4.33764C57.7862 4.60943 58.1647 4.86763 58.476 4.90253L60.3287 5.13421C61.515 5.27999 61.8209 6.11749 61.0136 6.99472L59.6382 8.48084C59.4086 8.72989 59.2894 9.205 59.3816 9.5311L59.8635 11.2807C60.2426 12.6621 59.5217 13.2346 58.255 12.5561L56.4854 11.6081C56.1631 11.4348 55.6511 11.46 55.3483 11.6546L53.6637 12.7393C52.4578 13.5147 51.6904 13.0043 51.955 11.5978L52.2939 9.81793C52.3571 9.48522 52.2055 9.02093 51.9551 8.79252L50.453 7.42206C49.5764 6.61596 49.8122 5.75681 50.9804 5.51323L52.8043 5.13422C53.1121 5.0677 53.4689 4.787 53.5941 4.5014L54.5286 2.43455C55.0394 1.32097 55.9405 1.28588 56.5347 2.35755Z" fill="#FFBD39"/>
<path d="M72.5347 2.35755L73.6354 4.33764C73.7862 4.60943 74.1647 4.86763 74.476 4.90253L76.3287 5.13421C77.515 5.27999 77.8209 6.11749 77.0136 6.99472L75.6382 8.48084C75.4086 8.72989 75.2894 9.205 75.3816 9.5311L75.8635 11.2807C76.2426 12.6621 75.5217 13.2346 74.255 12.5561L72.4854 11.6081C72.1631 11.4348 71.6511 11.46 71.3483 11.6546L69.6637 12.7393C68.4578 13.5147 67.6904 13.0043 67.955 11.5978L68.2939 9.81793C68.3571 9.48522 68.2055 9.02093 67.9551 8.79252L66.453 7.42206C65.5764 6.61596 65.8122 5.75681 66.9804 5.51323L68.8043 5.13422C69.1121 5.0677 69.4689 4.787 69.5941 4.5014L70.5286 2.43455C71.0394 1.32097 71.9405 1.28588 72.5347 2.35755Z" fill="#FFBD39"/>
</svg>
