<svg width="40" height="40" viewBox="0 0 40 40" fill="none" xmlns="http://www.w3.org/2000/svg">
<path d="M20 3.33325C10.8 3.33325 3.33334 10.7999 3.33334 19.9999C3.33334 29.1999 10.8 36.6666 20 36.6666C29.2 36.6666 36.6667 29.1999 36.6667 19.9999C36.6667 10.7999 29.2 3.33325 20 3.33325ZM19.35 24.7333C19.35 26.5499 17.9333 27.9666 16.1167 27.9666H13.65C11.8667 27.9666 10.4167 26.5166 10.4167 24.7333V20.2833C10.4167 15.1499 11.5333 13.9999 14.5167 12.2333C14.7167 12.1166 14.9333 12.0666 15.15 12.0666C15.5833 12.0666 16 12.2833 16.2333 12.6833C16.5833 13.2833 16.3833 14.0499 15.8 14.3999C13.7833 15.5666 13.0833 15.9999 12.95 19.0166H16.1333C17.95 19.0166 19.3667 20.4333 19.3667 22.2499V24.7333H19.35ZM29.5833 24.7333C29.5833 26.5499 28.1667 27.9666 26.35 27.9666H23.8667C22.0833 27.9666 20.6333 26.5166 20.6333 24.7333V20.2833C20.6333 15.1499 21.75 13.9999 24.7333 12.2333C24.9333 12.1166 25.15 12.0666 25.3667 12.0666C25.8 12.0666 26.2167 12.2833 26.45 12.6833C26.8 13.2833 26.6 14.0499 26.0167 14.3999C24 15.5999 23.3 16.0333 23.1667 19.0499H26.35C28.1667 19.0499 29.5833 20.4666 29.5833 22.2833V24.7333Z" fill="#E61C5D"/>
</svg>
