<svg width="18" height="18" viewBox="0 0 18 18" fill="none" xmlns="http://www.w3.org/2000/svg">
<path d="M4.05749 16.3126C3.21749 16.3126 2.68499 16.0276 2.34749 15.6901C1.68749 15.0301 1.22249 13.6276 2.70749 10.6501L3.35999 9.35261C3.44249 9.18011 3.44249 8.82011 3.35999 8.64761L2.70749 7.35011C1.21499 4.37261 1.68749 2.96261 2.34749 2.31011C2.99999 1.65011 4.40999 1.17761 7.37999 2.67011L13.8 5.88011C15.3975 6.67511 16.275 7.78511 16.275 9.00011C16.275 10.2151 15.3975 11.3251 13.8075 12.1201L7.38749 15.3301C5.93249 16.0576 4.85249 16.3126 4.05749 16.3126ZM4.05749 2.81261C3.65249 2.81261 3.33749 2.91011 3.14249 3.10511C2.59499 3.64511 2.81249 5.04761 3.71249 6.84011L4.36499 8.14511C4.60499 8.63261 4.60499 9.36761 4.36499 9.85511L3.71249 11.1526C2.81249 12.9526 2.59499 14.3476 3.14249 14.8876C3.68249 15.4351 5.08499 15.2176 6.88499 14.3176L13.305 11.1076C14.4825 10.5226 15.15 9.75011 15.15 8.99261C15.15 8.23511 14.475 7.46261 13.2975 6.87761L6.87749 3.67511C5.73749 3.10511 4.75499 2.81261 4.05749 2.81261Z" fill="white"/>
<path d="M8.12999 9.5625H4.07999C3.77249 9.5625 3.51749 9.3075 3.51749 9C3.51749 8.6925 3.77249 8.4375 4.07999 8.4375H8.12999C8.43749 8.4375 8.69249 8.6925 8.69249 9C8.69249 9.3075 8.43749 9.5625 8.12999 9.5625Z" fill="white"/>
</svg>
