<svg width="32" height="32" viewBox="0 0 32 32" fill="none" xmlns="http://www.w3.org/2000/svg">
<circle cx="16" cy="16" r="16" fill="#E61C5D"/>
<path d="M11.0575 23.3126C10.2175 23.3126 9.68499 23.0276 9.34749 22.6901C8.68749 22.0301 8.22249 20.6276 9.70749 17.6501L10.36 16.3526C10.4425 16.1801 10.4425 15.8201 10.36 15.6476L9.70749 14.3501C8.21499 11.3726 8.68749 9.96261 9.34749 9.31011C9.99999 8.65011 11.41 8.17761 14.38 9.67011L20.8 12.8801C22.3975 13.6751 23.275 14.7851 23.275 16.0001C23.275 17.2151 22.3975 18.3251 20.8075 19.1201L14.3875 22.3301C12.9325 23.0576 11.8525 23.3126 11.0575 23.3126ZM11.0575 9.81261C10.6525 9.81261 10.3375 9.91011 10.1425 10.1051C9.59499 10.6451 9.81249 12.0476 10.7125 13.8401L11.365 15.1451C11.605 15.6326 11.605 16.3676 11.365 16.8551L10.7125 18.1526C9.81249 19.9526 9.59499 21.3476 10.1425 21.8876C10.6825 22.4351 12.085 22.2176 13.885 21.3176L20.305 18.1076C21.4825 17.5226 22.15 16.7501 22.15 15.9926C22.15 15.2351 21.475 14.4626 20.2975 13.8776L13.8775 10.6751C12.7375 10.1051 11.755 9.81261 11.0575 9.81261Z" fill="white"/>
<path d="M15.13 16.5625H11.08C10.7725 16.5625 10.5175 16.3075 10.5175 16C10.5175 15.6925 10.7725 15.4375 11.08 15.4375H15.13C15.4375 15.4375 15.6925 15.6925 15.6925 16C15.6925 16.3075 15.4375 16.5625 15.13 16.5625Z" fill="white"/>
</svg>
